<svg width="18" height="18" viewBox="0 0 18 18" fill="none" xmlns="http://www.w3.org/2000/svg">
<path d="M3.25 5.25C3.25 5.38807 3.13807 5.5 3 5.5C2.86193 5.5 2.75 5.38807 2.75 5.25C2.75 5.11193 2.86193 5 3 5C3.13807 5 3.25 5.11193 3.25 5.25Z" fill="url(#paint0_linear_1469_2307)" stroke="url(#paint1_linear_1469_2307)"/>
<path d="M6 5.25C6 5.66421 5.66421 6 5.25 6C4.83579 6 4.5 5.66421 4.5 5.25C4.5 4.83579 4.83579 4.5 5.25 4.5C5.66421 4.5 6 4.83579 6 5.25Z" fill="url(#paint2_linear_1469_2307)"/>
<path d="M7.5 6C7.91422 6 8.25 5.66421 8.25 5.25C8.25 4.83579 7.91422 4.5 7.5 4.5C7.08578 4.5 6.75 4.83579 6.75 5.25C6.75 5.66421 7.08578 6 7.5 6Z" fill="url(#paint3_linear_1469_2307)"/>
<path fill-rule="evenodd" clip-rule="evenodd" d="M2.25 2.25C1.00736 2.25 0 3.25736 0 4.5V13.5C0 14.7427 1.00736 15.75 2.25 15.75H15.75C16.9927 15.75 18 14.7427 18 13.5V4.5C18 3.25736 16.9927 2.25 15.75 2.25H2.25ZM15.75 3.75H2.25C1.83579 3.75 1.5 4.08579 1.5 4.5V6.75H16.5V4.5C16.5 4.08579 16.1642 3.75 15.75 3.75ZM1.5 13.5V8.25H16.5V13.5C16.5 13.9142 16.1642 14.25 15.75 14.25H2.25C1.83579 14.25 1.5 13.9142 1.5 13.5Z" fill="url(#paint4_linear_1469_2307)"/>
<defs>
<linearGradient id="paint0_linear_1469_2307" x1="3.5941" y1="4.55263" x2="1.44516" y2="5.0545" gradientUnits="userSpaceOnUse">
<stop stop-color="#FB2BFF"/>
<stop offset="0.239583" stop-color="#E5F344"/>
<stop offset="0.473958" stop-color="#37FF4B"/>
<stop offset="0.71875" stop-color="#4D89FF"/>
<stop offset="1" stop-color="#8F00FF"/>
</linearGradient>
<linearGradient id="paint1_linear_1469_2307" x1="3.5941" y1="4.55263" x2="1.44516" y2="5.0545" gradientUnits="userSpaceOnUse">
<stop stop-color="#FB2BFF"/>
<stop offset="0.239583" stop-color="#E5F344"/>
<stop offset="0.473958" stop-color="#37FF4B"/>
<stop offset="0.71875" stop-color="#4D89FF"/>
<stop offset="1" stop-color="#8F00FF"/>
</linearGradient>
<linearGradient id="paint2_linear_1469_2307" x1="5.8441" y1="4.55263" x2="3.69516" y2="5.0545" gradientUnits="userSpaceOnUse">
<stop stop-color="#FB2BFF"/>
<stop offset="0.239583" stop-color="#E5F344"/>
<stop offset="0.473958" stop-color="#37FF4B"/>
<stop offset="0.71875" stop-color="#4D89FF"/>
<stop offset="1" stop-color="#8F00FF"/>
</linearGradient>
<linearGradient id="paint3_linear_1469_2307" x1="8.0941" y1="4.55263" x2="5.94516" y2="5.0545" gradientUnits="userSpaceOnUse">
<stop stop-color="#FB2BFF"/>
<stop offset="0.239583" stop-color="#E5F344"/>
<stop offset="0.473958" stop-color="#37FF4B"/>
<stop offset="0.71875" stop-color="#4D89FF"/>
<stop offset="1" stop-color="#8F00FF"/>
</linearGradient>
<linearGradient id="paint4_linear_1469_2307" x1="16.1292" y1="2.72368" x2="-8.66083" y2="10.4431" gradientUnits="userSpaceOnUse">
<stop stop-color="#FB2BFF"/>
<stop offset="0.239583" stop-color="#E5F344"/>
<stop offset="0.473958" stop-color="#37FF4B"/>
<stop offset="0.71875" stop-color="#4D89FF"/>
<stop offset="1" stop-color="#8F00FF"/>
</linearGradient>
</defs>
</svg>
