<svg width="37" height="36" viewBox="0 0 37 36" fill="none" xmlns="http://www.w3.org/2000/svg">
<path d="M13.6882 12.0092C13.3628 11.6838 12.8351 11.6838 12.5097 12.0092C12.1843 12.3347 12.1843 12.8623 12.5097 13.1877L17.322 18L12.5098 22.8122C12.1843 23.1376 12.1843 23.6653 12.5098 23.9907C12.8352 24.3161 13.3628 24.3161 13.6883 23.9907L18.5005 19.1785L23.3127 23.9907C23.6381 24.3161 24.1658 24.3161 24.4912 23.9907C24.8166 23.6653 24.8166 23.1376 24.4912 22.8122L19.679 18L24.4913 13.1877C24.8167 12.8623 24.8167 12.3347 24.4913 12.0092C24.1659 11.6838 23.6382 11.6838 23.3128 12.0092L18.5005 16.8215L13.6882 12.0092Z" fill="#F6F7F9"/>
<rect x="1" y="0.5" width="35" height="35" rx="17.5" stroke="#F6F7F9"/>
</svg>
