<svg width="18" height="16" viewBox="0 0 18 16" fill="none" xmlns="http://www.w3.org/2000/svg">
<path d="M12.7493 0.5C15.281 0.5 17.3327 2.58333 17.3327 5.5C17.3327 11.3333 11.0827 14.6667 8.99935 15.9167C6.91602 14.6667 0.666016 11.3333 0.666016 5.5C0.666016 2.58333 2.74935 0.5 5.24935 0.5C6.79935 0.5 8.16602 1.33333 8.99935 2.16667C9.83268 1.33333 11.1993 0.5 12.7493 0.5ZM9.77768 13.5033C10.5118 13.04 11.1743 12.5792 11.7943 12.0858C14.2785 10.1108 15.666 7.9525 15.666 5.5C15.666 3.53333 14.3852 2.16667 12.7493 2.16667C11.8527 2.16667 10.8827 2.64167 10.1777 3.345L8.99935 4.52333L7.82102 3.345C7.11602 2.64167 6.14602 2.16667 5.24935 2.16667C3.63268 2.16667 2.33268 3.54667 2.33268 5.5C2.33268 7.95333 3.72102 10.1108 6.20352 12.0858C6.82435 12.5792 7.48685 13.04 8.22102 13.5025C8.47018 13.66 8.71685 13.8108 8.99935 13.9792C9.28185 13.8108 9.52852 13.66 9.77768 13.5033Z" fill="#F6F7F9"/>
</svg>
