<svg width="21" height="32" viewBox="0 0 21 32" fill="none" xmlns="http://www.w3.org/2000/svg"><g fill="#F6F7F9"><path d="M20.231 18.554a.762.762 0 0 0-.927-.194l-8.803 4.402-8.804-4.402a.762.762 0 0 0-.95 1.139L9.89 31.692c.01.012.025.017.035.029.051.06.111.111.179.152.024.02.05.036.076.05a.71.71 0 0 0 .64 0 .595.595 0 0 0 .076-.05.735.735 0 0 0 .178-.152c.011-.012.026-.017.036-.029l9.145-12.193a.762.762 0 0 0-.025-.945ZM9.74 24.084v4.864l-5.836-7.773 5.836 2.91Zm1.524 4.864v-4.863l5.836-2.91-5.836 7.773Z"/><path d="M.615 16.081c0 .042.002.084.01.125.007.024.025.043.034.066a.467.467 0 0 0 .016.062c.009.02.032.027.042.046a.745.745 0 0 0 .198.216c.026.018.045.04.07.055.026.015.019.018.03.023l9.145 4.573h.02a.724.724 0 0 0 .641 0h.021l9.145-4.573a.674.674 0 0 0 .064-.05.721.721 0 0 0 .221-.218.813.813 0 0 0 .055-.072c.01-.023.01-.046.019-.067a.598.598 0 0 0 .032-.06.514.514 0 0 0 0-.083.768.768 0 0 0-.005-.293.719.719 0 0 0-.055-.152.564.564 0 0 0-.024-.072L11.149.365c-.011-.016-.03-.023-.041-.038a.731.731 0 0 0-1.22 0c-.01.015-.03.022-.041.038L.702 15.607a.762.762 0 0 0-.098.354c0 .013-.01.024-.01.038a.68.68 0 0 0 .021.082Zm9.124 3.251-6.68-3.34 6.68-3.339v6.68Zm1.524-6.679 6.679 3.34-6.679 3.34v-6.68Zm0-1.704V3.502l6.382 10.637-6.382-3.19Zm-1.524 0-6.383 3.192L9.739 3.502v7.447Z"/></g></svg>